<svg width="87" height="53" viewBox="0 0 87 53" fill="none" xmlns="http://www.w3.org/2000/svg">
<g filter="url(#filter0_i)">
<path d="M35.0344 30.8359C35.0344 37.9141 33.5695 43.3281 30.6398 47.0781C27.7102 50.8281 23.4211 52.7031 17.7727 52.7031C12.1945 52.7031 7.92891 50.8633 4.97578 47.1836C2.02266 43.5039 0.510937 38.2305 0.440624 31.3633V21.9414C0.440624 14.793 1.91719 9.36719 4.87031 5.66406C7.84687 1.96094 12.1242 0.109375 17.7023 0.109375C23.2805 0.109375 27.5461 1.94922 30.4992 5.62891C33.4523 9.28516 34.9641 14.5469 35.0344 21.4141V30.8359ZM24.8742 20.5C24.8742 16.2578 24.2883 13.1758 23.1164 11.2539C21.968 9.30859 20.1633 8.33594 17.7023 8.33594C15.3117 8.33594 13.5422 9.26172 12.3937 11.1133C11.2687 12.9414 10.6711 15.8125 10.6008 19.7266V32.1719C10.6008 36.3438 11.1633 39.4492 12.2883 41.4883C13.4367 43.5039 15.2648 44.5117 17.7727 44.5117C20.257 44.5117 22.05 43.5391 23.1516 41.5938C24.2531 39.6484 24.8273 36.6719 24.8742 32.6641V20.5ZM25.4648 32.6289C25.4648 28.8555 26.1914 25.4922 27.6445 22.5391C29.0977 19.5859 31.1836 17.3008 33.9023 15.6836C36.6445 14.0664 39.8203 13.2578 43.4297 13.2578C48.5625 13.2578 52.7461 14.8281 55.9805 17.9688C59.2383 21.1094 61.0547 25.375 61.4297 30.7656L61.5 33.3672C61.5 39.2031 59.8711 43.8906 56.6133 47.4297C53.3555 50.9453 48.9844 52.7031 43.5 52.7031C38.0156 52.7031 33.6328 50.9453 30.3516 47.4297C27.0938 43.9141 25.4648 39.1328 25.4648 33.0859V32.6289ZM35.625 33.3672C35.625 36.9766 36.3047 39.7422 37.6641 41.6641C39.0234 43.5625 40.9688 44.5117 43.5 44.5117C45.9609 44.5117 47.8828 43.5742 49.2656 41.6992C50.6484 39.8008 51.3398 36.7773 51.3398 32.6289C51.3398 29.0898 50.6484 26.3477 49.2656 24.4023C47.8828 22.457 45.9375 21.4844 43.4297 21.4844C40.9453 21.4844 39.0234 22.457 37.6641 24.4023C36.3047 26.3242 35.625 29.3125 35.625 33.3672ZM86.4891 30.8359C86.4891 37.9141 85.0242 43.3281 82.0945 47.0781C79.1648 50.8281 74.8758 52.7031 69.2273 52.7031C63.6492 52.7031 59.3836 50.8633 56.4305 47.1836C53.4773 43.5039 51.9656 38.2305 51.8953 31.3633V21.9414C51.8953 14.793 53.3719 9.36719 56.325 5.66406C59.3016 1.96094 63.5789 0.109375 69.157 0.109375C74.7352 0.109375 79.0008 1.94922 81.9539 5.62891C84.907 9.28516 86.4188 14.5469 86.4891 21.4141V30.8359ZM76.3289 20.5C76.3289 16.2578 75.743 13.1758 74.5711 11.2539C73.4227 9.30859 71.618 8.33594 69.157 8.33594C66.7664 8.33594 64.9969 9.26172 63.8484 11.1133C62.7234 12.9414 62.1258 15.8125 62.0555 19.7266V32.1719C62.0555 36.3438 62.618 39.4492 63.743 41.4883C64.8914 43.5039 66.7195 44.5117 69.2273 44.5117C71.7117 44.5117 73.5047 43.5391 74.6063 41.5938C75.7078 39.6484 76.282 36.6719 76.3289 32.6641V20.5Z" fill="white"/>
</g>
<defs>
<filter id="filter0_i" x="0.44043" y="0.109375" width="86.0484" height="56.5938" filterUnits="userSpaceOnUse" color-interpolation-filters="sRGB">
<feFlood flood-opacity="0" result="BackgroundImageFix"/>
<feBlend mode="normal" in="SourceGraphic" in2="BackgroundImageFix" result="shape"/>
<feColorMatrix in="SourceAlpha" type="matrix" values="0 0 0 0 0 0 0 0 0 0 0 0 0 0 0 0 0 0 127 0" result="hardAlpha"/>
<feOffset dy="4"/>
<feGaussianBlur stdDeviation="2"/>
<feComposite in2="hardAlpha" operator="arithmetic" k2="-1" k3="1"/>
<feColorMatrix type="matrix" values="0 0 0 0 0 0 0 0 0 0 0 0 0 0 0 0 0 0 0.25 0"/>
<feBlend mode="normal" in2="shape" result="effect1_innerShadow"/>
</filter>
</defs>
</svg>
