<svg width="126" height="102" viewBox="0 0 126 102" fill="none" xmlns="http://www.w3.org/2000/svg">
<g filter="url(#filter0_i)">
<path d="M53.5344 30.8359C53.5344 37.9141 52.0695 43.3281 49.1398 47.0781C46.2102 50.8281 41.9211 52.7031 36.2727 52.7031C30.6945 52.7031 26.4289 50.8633 23.4758 47.1836C20.5227 43.5039 19.0109 38.2305 18.9406 31.3633L18.9406 21.9414C18.9406 14.793 20.4172 9.36719 23.3703 5.66406C26.3469 1.96094 30.6242 0.109375 36.2023 0.109374C41.7805 0.109374 46.0461 1.94922 48.9992 5.62891C51.9523 9.28516 53.4641 14.5469 53.5344 21.4141L53.5344 30.8359ZM43.3742 20.5C43.3742 16.2578 42.7883 13.1758 41.6164 11.2539C40.468 9.30859 38.6633 8.33594 36.2023 8.33594C33.8117 8.33594 32.0422 9.26172 30.8937 11.1133C29.7687 12.9414 29.1711 15.8125 29.1008 19.7266L29.1008 32.1719C29.1008 36.3437 29.6633 39.4492 30.7883 41.4883C31.9367 43.5039 33.7648 44.5117 36.2727 44.5117C38.757 44.5117 40.55 43.5391 41.6516 41.5937C42.7531 39.6484 43.3273 36.6719 43.3742 32.6641L43.3742 20.5ZM43.9648 32.6289C43.9648 28.8555 44.6914 25.4922 46.1445 22.5391C47.5977 19.5859 49.6836 17.3008 52.4023 15.6836C55.1445 14.0664 58.3203 13.2578 61.9297 13.2578C67.0625 13.2578 71.2461 14.8281 74.4805 17.9687C77.7383 21.1094 79.5547 25.375 79.9297 30.7656L80 33.3672C80 39.2031 78.3711 43.8906 75.1133 47.4297C71.8555 50.9453 67.4844 52.7031 62 52.7031C56.5156 52.7031 52.1328 50.9453 48.8516 47.4297C45.5937 43.9141 43.9648 39.1328 43.9648 33.0859L43.9648 32.6289ZM54.125 33.3672C54.125 36.9766 54.8047 39.7422 56.1641 41.6641C57.5234 43.5625 59.4687 44.5117 62 44.5117C64.4609 44.5117 66.3828 43.5742 67.7656 41.6992C69.1484 39.8008 69.8398 36.7773 69.8398 32.6289C69.8398 29.0898 69.1484 26.3477 67.7656 24.4023C66.3828 22.457 64.4375 21.4844 61.9297 21.4844C59.4453 21.4844 57.5234 22.457 56.1641 24.4023C54.8047 26.3242 54.125 29.3125 54.125 33.3672ZM104.989 30.8359C104.989 37.9141 103.524 43.3281 100.595 47.0781C97.6648 50.8281 93.3758 52.7031 87.7273 52.7031C82.1492 52.7031 77.8836 50.8633 74.9305 47.1836C71.9773 43.5039 70.4656 38.2305 70.3953 31.3633L70.3953 21.9414C70.3953 14.793 71.8719 9.36719 74.825 5.66406C77.8016 1.96094 82.0789 0.109374 87.657 0.109374C93.2352 0.109374 97.5008 1.94922 100.454 5.62891C103.407 9.28516 104.919 14.5469 104.989 21.4141L104.989 30.8359ZM94.8289 20.5C94.8289 16.2578 94.243 13.1758 93.0711 11.2539C91.9227 9.30859 90.118 8.33594 87.657 8.33594C85.2664 8.33594 83.4969 9.26172 82.3484 11.1133C81.2234 12.9414 80.6258 15.8125 80.5555 19.7266L80.5555 32.1719C80.5555 36.3437 81.118 39.4492 82.243 41.4883C83.3914 43.5039 85.2195 44.5117 87.7273 44.5117C90.2117 44.5117 92.0047 43.5391 93.1062 41.5937C94.2078 39.6484 94.782 36.6719 94.8289 32.6641L94.8289 20.5Z" fill="white"/>
</g>
<g filter="url(#filter1_d)">
<path d="M21.5155 79.08C21.5155 82.7 20.5255 85.43 18.5455 87.27C16.5855 89.09 13.8455 90 10.3255 90L4.35551 90L4.35551 68.58L10.9555 68.58C13.1155 68.58 14.9855 68.98 16.5655 69.78C18.1455 70.58 19.3655 71.76 20.2255 73.32C21.0855 74.86 21.5155 76.78 21.5155 79.08ZM18.6655 79.17C18.6655 76.31 17.9555 74.22 16.5355 72.9C15.1355 71.56 13.1455 70.89 10.5655 70.89L7.05551 70.89L7.05551 87.69L9.96551 87.69C15.7655 87.69 18.6655 84.85 18.6655 79.17ZM34.4396 90L22.4696 90L22.4696 68.58L34.4396 68.58L34.4396 70.95L25.1696 70.95L25.1696 77.64L33.8996 77.64L33.8996 79.98L25.1696 79.98L25.1696 87.63L34.4396 87.63L34.4396 90ZM47.3095 90L35.3395 90L35.3395 68.58L47.3095 68.58L47.3095 70.95L38.0395 70.95L38.0395 77.64L46.7695 77.64L46.7695 79.98L38.0395 79.98L38.0395 87.63L47.3095 87.63L47.3095 90ZM60.361 78.3C61.369 78.3 62.137 78.072 62.665 77.616C63.217 77.136 63.493 76.416 63.493 75.456C63.493 74.544 63.205 73.848 62.629 73.368C62.077 72.864 61.261 72.612 60.181 72.612C59.797 72.612 59.473 72.624 59.209 72.648C58.969 72.648 58.717 72.672 58.453 72.72L58.453 78.3L60.361 78.3ZM58.489 89.856C58.225 89.928 57.805 90 57.229 90.072C56.677 90.144 56.125 90.18 55.573 90.18C55.021 90.18 54.529 90.132 54.097 90.036C53.689 89.964 53.341 89.82 53.053 89.604C52.765 89.388 52.549 89.088 52.405 88.704C52.261 88.32 52.189 87.816 52.189 87.192L52.189 70.236C52.189 69.732 52.321 69.348 52.585 69.084C52.873 68.796 53.257 68.568 53.737 68.4C54.553 68.112 55.477 67.908 56.509 67.788C57.565 67.644 58.621 67.572 59.677 67.572C62.989 67.572 65.521 68.28 67.273 69.696C69.025 71.112 69.901 73.032 69.901 75.456C69.901 76.632 69.709 77.7 69.325 78.66C68.965 79.596 68.413 80.412 67.669 81.108C66.949 81.78 66.025 82.308 64.897 82.692C63.793 83.052 62.509 83.232 61.045 83.232L58.489 83.232L58.489 89.856ZM67.727 79.056C67.727 77.184 68.015 75.528 68.591 74.088C69.191 72.648 69.995 71.448 71.003 70.488C72.035 69.504 73.235 68.76 74.603 68.256C75.995 67.752 77.495 67.5 79.103 67.5C80.711 67.5 82.199 67.752 83.567 68.256C84.959 68.76 86.171 69.504 87.203 70.488C88.235 71.448 89.039 72.648 89.615 74.088C90.215 75.528 90.515 77.184 90.515 79.056C90.515 80.928 90.227 82.596 89.651 84.06C89.075 85.5 88.271 86.712 87.239 87.696C86.231 88.656 85.031 89.388 83.639 89.892C82.247 90.396 80.735 90.648 79.103 90.648C77.471 90.648 75.959 90.396 74.567 89.892C73.175 89.364 71.975 88.608 70.967 87.624C69.959 86.64 69.167 85.428 68.591 83.988C68.015 82.548 67.727 80.904 67.727 79.056ZM74.207 79.056C74.207 81.24 74.651 82.872 75.539 83.952C76.427 85.032 77.615 85.572 79.103 85.572C80.615 85.572 81.815 85.032 82.703 83.952C83.591 82.872 84.035 81.24 84.035 79.056C84.035 76.896 83.591 75.276 82.703 74.196C81.839 73.116 80.651 72.576 79.139 72.576C77.651 72.576 76.451 73.116 75.539 74.196C74.651 75.252 74.207 76.872 74.207 79.056ZM96.0115 81.324C94.9555 80.964 93.9955 80.604 93.1315 80.244C92.2675 79.86 91.5235 79.404 90.8995 78.876C90.2755 78.348 89.7835 77.724 89.4235 77.004C89.0875 76.26 88.9195 75.36 88.9195 74.304C88.9195 72.264 89.6995 70.632 91.2595 69.408C92.8435 68.184 95.0515 67.572 97.8835 67.572C98.9155 67.572 99.8755 67.644 100.763 67.788C101.651 67.932 102.407 68.16 103.031 68.472C103.679 68.76 104.183 69.144 104.543 69.624C104.903 70.08 105.083 70.62 105.083 71.244C105.083 71.868 104.939 72.408 104.651 72.864C104.363 73.296 104.015 73.668 103.607 73.98C103.079 73.644 102.371 73.356 101.483 73.116C100.595 72.852 99.6235 72.72 98.5675 72.72C97.4875 72.72 96.6955 72.876 96.1915 73.188C95.6875 73.476 95.4355 73.848 95.4355 74.304C95.4355 74.664 95.5915 74.964 95.9035 75.204C96.2155 75.42 96.6835 75.624 97.3075 75.816L99.2155 76.428C101.471 77.148 103.199 78.072 104.399 79.2C105.623 80.304 106.235 81.816 106.235 83.736C106.235 85.776 105.431 87.432 103.823 88.704C102.215 89.952 99.8515 90.576 96.7315 90.576C95.6275 90.576 94.5955 90.48 93.6355 90.288C92.6995 90.12 91.8715 89.868 91.1515 89.532C90.4555 89.172 89.9035 88.74 89.4955 88.236C89.1115 87.708 88.9195 87.108 88.9195 86.436C88.9195 85.74 89.1235 85.152 89.5315 84.672C89.9395 84.168 90.3835 83.784 90.8635 83.52C91.5355 84.048 92.3515 84.504 93.3115 84.888C94.2955 85.272 95.3635 85.464 96.5155 85.464C97.6915 85.464 98.5195 85.284 98.9995 84.924C99.4795 84.564 99.7195 84.144 99.7195 83.664C99.7195 83.184 99.5275 82.824 99.1435 82.584C98.7595 82.32 98.2195 82.068 97.5235 81.828L96.0115 81.324ZM103.883 73.224C103.715 72.96 103.559 72.6 103.415 72.144C103.271 71.688 103.199 71.208 103.199 70.704C103.199 69.768 103.403 69.096 103.811 68.688C104.243 68.28 104.795 68.076 105.467 68.076L121.163 68.076C121.331 68.34 121.487 68.7 121.631 69.156C121.775 69.612 121.847 70.092 121.847 70.596C121.847 71.532 121.631 72.204 121.199 72.612C120.791 73.02 120.251 73.224 119.579 73.224L115.583 73.224L115.583 89.856C115.319 89.928 114.899 90 114.323 90.072C113.771 90.144 113.219 90.18 112.667 90.18C112.115 90.18 111.623 90.132 111.191 90.036C110.783 89.964 110.435 89.82 110.147 89.604C109.859 89.388 109.643 89.088 109.499 88.704C109.355 88.32 109.283 87.816 109.283 87.192L109.283 73.224L103.883 73.224Z" fill="white"/>
</g>
<defs>
<filter id="filter0_i" x="18.9414" y="0.109375" width="86.0484" height="56.5938" filterUnits="userSpaceOnUse" color-interpolation-filters="sRGB">
<feFlood flood-opacity="0" result="BackgroundImageFix"/>
<feBlend mode="normal" in="SourceGraphic" in2="BackgroundImageFix" result="shape"/>
<feColorMatrix in="SourceAlpha" type="matrix" values="0 0 0 0 0 0 0 0 0 0 0 0 0 0 0 0 0 0 127 0" result="hardAlpha"/>
<feOffset dy="4"/>
<feGaussianBlur stdDeviation="2"/>
<feComposite in2="hardAlpha" operator="arithmetic" k2="-1" k3="1"/>
<feColorMatrix type="matrix" values="0 0 0 0 0 0 0 0 0 0 0 0 0 0 0 0 0 0 0.25 0"/>
<feBlend mode="normal" in2="shape" result="effect1_innerShadow"/>
</filter>
<filter id="filter1_d" x="0.355469" y="67.5" width="125.491" height="34.148" filterUnits="userSpaceOnUse" color-interpolation-filters="sRGB">
<feFlood flood-opacity="0" result="BackgroundImageFix"/>
<feColorMatrix in="SourceAlpha" type="matrix" values="0 0 0 0 0 0 0 0 0 0 0 0 0 0 0 0 0 0 127 0" result="hardAlpha"/>
<feOffset dy="7"/>
<feGaussianBlur stdDeviation="2"/>
<feComposite in2="hardAlpha" operator="out"/>
<feColorMatrix type="matrix" values="0 0 0 0 0 0 0 0 0 0 0 0 0 0 0 0 0 0 0.3 0"/>
<feBlend mode="normal" in2="BackgroundImageFix" result="effect1_dropShadow"/>
<feBlend mode="normal" in="SourceGraphic" in2="effect1_dropShadow" result="shape"/>
</filter>
</defs>
</svg>
